<svg id="Layer_3" data-name="Layer 3" xmlns="http://www.w3.org/2000/svg" viewBox="0 0 402.31 413.75"><defs></defs><path class="cls-1" d="M536.64,604.2a178.55,178.55,0,0,1-49.75,34.69c-90.68,42.61-199.95,1.53-240.15-90.24A179.13,179.13,0,0,1,396.32,298.43a3.16,3.16,0,0,1,2.68,5.18A179.07,179.07,0,0,0,534.45,598.8,3.15,3.15,0,0,1,536.64,604.2Z" transform="translate(-231.69 -242)" fill="white"/><path class="cls-1" d="M503,305.07l-10.48,23.44a5.9,5.9,0,0,1-10.69.18l-11.65-23.81a5.88,5.88,0,0,0-2.81-2.76l-21.51-10a5.9,5.9,0,0,1,.2-10.78l21.12-8.92a5.87,5.87,0,0,0,3-2.93l11.3-24.06a5.9,5.9,0,0,1,10.84.38l9,23.3a5.89,5.89,0,0,0,3.37,3.37l23,8.91a5.9,5.9,0,0,1,.28,10.89l-22,9.84A5.91,5.91,0,0,0,503,305.07Z" transform="translate(-231.69 -242)" fill="white"/><path class="cls-1" d="M589.82,478.17l-16.23,36.4a9.14,9.14,0,0,1-16.57.29l-18.06-37a9.15,9.15,0,0,0-4.34-4.28L501.28,458a9.18,9.18,0,0,1,.31-16.75l32.72-13.85a9.17,9.17,0,0,0,4.73-4.55l17.5-37.36a9.13,9.13,0,0,1,16.8.58l14,36.19a9.14,9.14,0,0,0,5.22,5.23l35.59,13.83a9.17,9.17,0,0,1,.42,16.92l-34.14,15.29A9.19,9.19,0,0,0,589.82,478.17Z" transform="translate(-231.69 -242)" fill="white"/></svg>